<?xml version="1.0" encoding="iso-8859-1"?>
<!-- Generator: Adobe Illustrator 19.0.0, SVG Export Plug-In . SVG Version: 6.00 Build 0)  -->
<svg version="1.1" id="Capa_1" xmlns="http://www.w3.org/2000/svg" xmlns:xlink="http://www.w3.org/1999/xlink" x="0px" y="0px"
	 viewBox="0 0 388 388" style="enable-background:new 0 0 388 388;" xml:space="preserve">
<path style="fill:#ED664C;" d="M337.6,110v227.9c0,22.1-17.9,40-40,40H90.4c-22.1,0-40-17.9-40-40V50.1c0-22.1,17.9-40,40-40h152.1
	V80c0,16.6,13.4,30,30,30H337.6z"/>
<path style="fill:#FDC75B;" d="M242.5,10.1l95.1,99.9h-65.1c-16.6,0-30-13.4-30-30V10.1z"/>
<path d="M249.7,3.1c-1.9-2-4.5-3.1-7.2-3.1H90.4C62.8,0,40,22.5,40,50.1v287.8c0,27.6,22.8,50.1,50.4,50.1h207.2
	c27.6,0,50.4-22.5,50.4-50.1V110c0-2.6-1.2-5.1-2.9-6.9L249.7,3.1z M252,35.1l62.3,64.9h-41.8c-11,0-20.5-9-20.5-20V35.1z
	 M297.6,368H90.4C73.9,368,60,354.5,60,337.9V50.1C60,33.6,73.8,20,90.4,20H232v60c0,22.1,18.4,40,40.5,40H328v217.9
	C328,354.5,314.2,368,297.6,368z"/>
<path d="M271,224H117c-5.5,0-10,4.5-10,10s4.5,10,10,10h154c5.5,0,10-4.5,10-10S276.5,224,271,224z"/>
<path d="M117,197h94.7c5.5,0,10-4.5,10-10s-4.5-10-10-10H117c-5.5,0-10,4.5-10,10S111.5,197,117,197z"/>
<path d="M271,271H117c-5.5,0-10,4.5-10,10s4.5,10,10,10h154c5.5,0,10-4.5,10-10S276.5,271,271,271z"/>
<g>
</g>
<g>
</g>
<g>
</g>
<g>
</g>
<g>
</g>
<g>
</g>
<g>
</g>
<g>
</g>
<g>
</g>
<g>
</g>
<g>
</g>
<g>
</g>
<g>
</g>
<g>
</g>
<g>
</g>
</svg>
