<?xml version="1.0" encoding="iso-8859-1"?>
<!-- Generator: Adobe Illustrator 19.0.0, SVG Export Plug-In . SVG Version: 6.00 Build 0)  -->
<svg version="1.1" id="Capa_1" xmlns="http://www.w3.org/2000/svg" xmlns:xlink="http://www.w3.org/1999/xlink" x="0px" y="0px"
	 viewBox="0 0 400 400" style="enable-background:new 0 0 400 400;" xml:space="preserve">
<g>
	<path style="fill:#ED664C;" d="M390.1,143.05v176.1c0,22.1-17.9,40-40,40h-100H55v-216.1c0-22.1,17.9-40,40-40h105.8h149.3
		C372.2,103.05,390.1,120.95,390.1,143.05z"/>
	<path style="fill:#ED664C;" d="M162.2,55.75l38.6,47.3H95c-22.1,0-40,17.9-40,40v216.1h-5.1c-22.1,0-40-17.9-40-40V80.95
		c0-22.1,17.9-40,40-40h81.3C143.2,40.95,154.6,46.35,162.2,55.75z"/>
</g>
<path d="M350.1,93.05H205.5l-35.6-43.6c-9.5-11.7-23.6-18.4-38.7-18.4H49.9C22.3,31.05,0,53.45,0,80.95v238.1
	c0,27.6,22.3,49.9,49.9,49.9H55h295.1c27.6,0,49.9-22.4,49.9-49.9v-176C400,115.45,377.7,93.05,350.1,93.05z M20,319.15V80.95
	c0-16.5,13.4-29.9,29.9-29.9h81.3c9.1,0,17.5,4,23.2,11l25.3,31H95c-27.6,0-50,22.4-50,50v205.7C30.8,346.35,20,333.95,20,319.15z
	 M380,319.15c0,16.5-13.4,29.9-29.9,29.9H65v-206c0-16.5,13.5-30,30-30h105.7l0,0H350c16.5,0,29.9,13.4,29.9,30v176.1H380z"/>
<g>
</g>
<g>
</g>
<g>
</g>
<g>
</g>
<g>
</g>
<g>
</g>
<g>
</g>
<g>
</g>
<g>
</g>
<g>
</g>
<g>
</g>
<g>
</g>
<g>
</g>
<g>
</g>
<g>
</g>
</svg>
