<?xml version="1.0" encoding="iso-8859-1"?>
<!-- Generator: Adobe Illustrator 19.0.0, SVG Export Plug-In . SVG Version: 6.00 Build 0)  -->
<svg version="1.1" id="Capa_1" xmlns="http://www.w3.org/2000/svg" xmlns:xlink="http://www.w3.org/1999/xlink" x="0px" y="0px"
	 viewBox="0 0 486 486" style="enable-background:new 0 0 486 486;" xml:space="preserve">
<path style="fill:#FDC75B;" d="M281.4,373.75c-6.9-13.8-10.7-29.3-10.7-45.7c0-56.7,46-102.7,102.7-102.7c5.7,0,11.2,0.5,16.6,1.3
	c48.8,7.9,86.1,50.3,86.1,101.3c0,56.7-46,102.7-102.7,102.7C333.1,430.65,298.2,407.45,281.4,373.75z M343.7,326.45H403l-29.7-50.7
	L343.7,326.45z"/>
<path style="fill:#ED664C;" d="M55,157.65c0-22.1,17.9-40,40-40h105.8h149.3c22.1,0,40,17.9,40,40v67.9l-0.2,1.1
	c-5.4-0.9-10.9-1.3-16.6-1.3c-56.7,0-102.7,46-102.7,102.7c0,16.4,3.9,32,10.7,45.7H250H55V157.65z"/>
<polygon style="fill:#FDC75B;" points="373.4,275.75 403,326.45 343.7,326.45 "/>
<path style="fill:#ED664C;" d="M162.2,70.35l38.6,47.3H95c-22.1,0-40,17.9-40,40v216.1h-5c-22.1,0-40-17.9-40-40V95.65
	c0-22.1,17.9-40,40-40h81.3C143.2,55.65,154.6,61.05,162.2,70.35z"/>
<path d="M400,218.55v-60.9c0-27.6-22.3-49.5-49.9-49.5H205.6L170,64.05c-9.6-11.7-23.7-18.9-38.8-18.9H50c-27.6,0-50,22.9-50,50.5
	v238.1c0,27.6,22.4,50.4,50,50.4h5h220.4c9.1,16,22.1,29.5,37.8,39.4c18,11.4,38.8,17.3,60.1,17.3c62.1,0,112.7-50.6,112.7-112.7
	c0-26.9-9.7-53-27.2-73.4C443.4,236.75,423,224.05,400,218.55z M20,333.75V95.65c0-16.6,13.4-30.5,30-30.5h81.3
	c9,0,17.5,4.5,23.2,11.5l25.3,31.5H95c-27.6,0-50,21.9-50,49.5v205.7C31,360.95,20,348.65,20,333.75z M65,157.65
	c0-16.5,13.5-29.5,30-29.5h255.1c16.5,0,29.9,13,29.9,29.5v57.9c-2-0.1-4.4-0.2-6.7-0.2c-62.1,0-112.6,50.8-112.6,112.9
	c0,12.3,2,23.9,5.8,35.9H65V157.65z M373.4,420.65c-35.4,0-67.2-19.7-83-51.4l0,0c-6.4-12.9-9.7-26.7-9.7-41.3
	c0-51.1,41.6-92.7,92.7-92.7c5,0,10.1,0.4,15,1.2c21.5,3.5,41.1,14.5,55.4,31.1c14.4,16.8,22.3,38.2,22.3,60.3
	C466,379.15,424.5,420.65,373.4,420.65z"/>
<path d="M382,270.65c-1.8-3.1-5.1-4.9-8.6-4.9c-3.6,0-6.8,1.9-8.6,4.9l-29.8,50.7c-1.8,3.1-1.8,6.8,0,9.9c1.8,3.1,5.1,4.9,8.7,4.9
	H363v44.1c0,5.5,4.5,10,10,10s10-4.5,10-10v-44.1h20c3.6,0,6.9-1.8,8.7-4.9c1.8-3.1,1.8-6.9,0-10L382,270.65z M361.1,316.15
	l12.2-20.9l12.2,20.9H361.1z"/>
<g>
</g>
<g>
</g>
<g>
</g>
<g>
</g>
<g>
</g>
<g>
</g>
<g>
</g>
<g>
</g>
<g>
</g>
<g>
</g>
<g>
</g>
<g>
</g>
<g>
</g>
<g>
</g>
<g>
</g>
</svg>
